<svg width="100" height="100" viewBox="0 0 100 100" fill="none" xmlns="http://www.w3.org/2000/svg">
<path d="M50 100C77.6142 100 100 77.6142 100 50C100 22.3858 77.6142 0 50 0C22.3858 0 0 22.3858 0 50C0 77.6142 22.3858 100 50 100Z" fill="#CAC5C0"/>
<path d="M37.1623 18.5742V68.7792C37.1623 74.7412 39.6723 77.7182 44.6993 77.7182H45.9763V81.1692H19.1523V77.7182H20.9393C25.9663 77.7182 28.4763 74.7402 28.4763 68.7792V35.8202C28.4763 29.7752 26.3453 26.7502 22.0873 26.7502H19.4053V23.3042H20.4283C25.6213 23.3042 30.3463 21.7292 34.6083 18.5752L37.1623 18.5742ZM77.9123 54.3452C73.2283 58.7742 68.5473 60.9882 63.8633 60.9882C58.7543 60.9882 54.6213 58.8992 51.4703 54.7252C48.6583 51.0662 47.2543 46.5952 47.2543 41.3152C47.2543 35.6072 48.9123 30.4982 52.2333 25.9862C55.9793 21.1322 60.6233 18.7052 66.1583 18.7052C72.8863 18.7052 78.2073 21.6002 82.1253 27.3912C85.7853 32.5882 87.6193 38.6752 87.6193 45.6562C87.6193 55.7092 84.3193 64.1602 77.7203 71.0152C71.1183 77.8702 62.8393 81.3422 52.8743 81.4252V78.1042C55.9403 77.9332 58.3683 77.5892 60.1553 77.0812C70.2933 74.0132 76.2073 66.4352 77.9123 54.3452ZM78.5533 48.0812C78.6353 46.7252 78.6823 45.4462 78.6823 44.2512C78.6823 39.3132 77.8303 34.8012 76.1253 30.7112C73.8263 25.3472 70.5903 22.6642 66.4143 22.6642C62.7563 22.6642 60.0683 24.4942 58.3693 28.1582C56.9183 31.1372 56.1953 34.6302 56.1953 38.6322C56.1953 42.9722 56.8773 46.7252 58.2383 49.8692C60.0273 54.0432 62.8403 56.1332 66.6703 56.1332C71.2703 56.1332 75.2303 53.4512 78.5533 48.0812Z" fill="#0D0F0F"/>
</svg>
