<svg width="100" height="100" viewBox="0 0 100 100" fill="none" xmlns="http://www.w3.org/2000/svg">
<path d="M85.3495 14.6367C94.4015 23.6877 100 36.1877 100 49.9967C100 77.6127 77.6135 99.9997 50.0005 99.9997C36.1935 99.9997 23.6955 94.4037 14.6465 85.3537" fill="#A3C095"/>
<path d="M14.646 85.353C5.597 76.306 0 63.804 0 49.997C0 22.384 22.387 0 50 0C63.804 0 76.301 5.59299 85.349 14.637" fill="#CAC5C0"/>
<path d="M43.646 41.5882L40.78 51.2652H16.959V49.1972C18.116 47.9072 20.651 45.3062 24.566 41.3922C26.923 39.0332 29.258 36.5412 31.571 33.9162C32.728 32.6282 33.619 31.5152 34.238 30.5802C35.617 28.5812 36.308 26.5342 36.308 24.4422C36.308 22.3972 35.675 20.5942 34.407 19.0402C33.14 17.4792 31.504 16.7012 29.502 16.7012C25.189 16.7012 21.808 19.6172 19.362 25.4442L17.225 24.6412C20.116 16.4582 24.673 12.3672 30.903 12.3672C33.972 12.3672 36.585 13.4112 38.742 15.5012C40.901 17.5932 41.978 20.1712 41.978 23.2422C41.978 27.1572 39.733 30.9792 35.24 34.7182L30.572 38.5862C27.591 41.0782 25.119 43.4132 23.166 45.5912C23.03 45.7282 22.764 46.0372 22.364 46.5272H34.774C36.686 46.5272 38.133 46.1502 39.109 45.3942C39.954 44.7242 40.779 43.4572 41.579 41.5882H43.646Z" fill="#0D0F0F"/>
<path d="M89.5171 67.6154C89.5171 68.3734 89.2241 69.0524 88.6381 69.6584C88.0521 70.2624 87.3811 70.5634 86.6231 70.5634C85.4151 70.5634 84.5251 69.9974 83.9601 68.8624L81.2931 68.7504C80.7251 68.7504 79.6091 68.9964 77.9471 69.4874C76.1701 69.9774 75.1491 70.3754 74.8841 70.6764C74.4691 71.1314 74.1291 72.1904 73.8631 73.8544C73.6351 75.2154 73.5241 76.2174 73.5241 76.8604C73.5241 77.8804 73.6841 78.6284 74.0051 79.1004C74.3261 79.5734 74.9891 79.9694 75.9891 80.2894C76.9891 80.6074 77.6051 80.7914 77.8331 80.8284C77.9841 80.8284 78.2291 80.8104 78.5701 80.7714H79.2511C79.7421 80.7714 80.2531 80.8474 80.7841 80.9984C81.5391 81.2254 81.8621 81.5254 81.7491 81.9054C81.2181 81.8314 80.2931 81.9434 78.9701 82.2454L80.5561 83.0404C80.5561 83.4944 79.9141 83.7194 78.6281 83.7194C78.2861 83.7194 77.8231 83.6474 77.2391 83.4944C76.6521 83.3404 76.2641 83.2654 76.0761 83.2654H75.3391C75.3001 83.6444 75.1881 84.2084 74.9991 84.9664C74.3541 84.9294 73.5991 84.5504 72.7291 83.8334C71.8591 83.1134 71.3111 82.7544 71.0861 82.7544C70.8581 82.7544 70.5361 83.1134 70.1211 83.8334C69.7041 84.5504 69.4961 85.0404 69.4961 85.3084C69.0051 85.0404 68.5911 84.5504 68.2471 83.8334C68.0961 83.3384 67.9261 82.8474 67.7381 82.3544C67.3601 82.3934 66.6611 83.1904 65.6401 84.7394H65.3561C65.2791 84.6264 64.9951 83.8334 64.5031 82.3544C63.3311 81.9794 62.2361 81.7914 61.2151 81.7914C60.7241 81.7914 59.9661 81.9034 58.9441 82.1324L57.3581 82.0194C57.5831 81.7914 58.2461 81.3574 59.3421 80.7144C60.6271 79.9564 61.6111 79.5774 62.2911 79.5774C62.4031 79.5774 62.5541 79.5984 62.7451 79.6364C62.9331 79.6754 63.0851 79.6944 63.1991 79.6944C63.4611 79.6944 63.8891 79.5524 64.4751 79.2674C65.0611 78.9844 65.4011 78.7284 65.4931 78.5014C65.5911 78.2724 65.6381 77.6884 65.6381 76.7424C65.6381 74.5894 65.0701 72.9794 63.9351 71.9234C62.9511 70.9784 61.3271 70.2984 59.0591 69.8804C58.4541 72.0344 56.7521 73.1144 53.9551 73.1144C53.0461 73.1144 52.1401 72.5654 51.2321 71.4684C50.3271 70.3704 49.8711 69.3694 49.8711 68.4624C49.8711 67.0624 50.4571 65.9104 51.6291 65.0024C50.6851 64.0214 50.2121 63.0194 50.2121 61.9964C50.2121 61.0524 50.5041 60.2204 51.0911 59.5004C51.6771 58.7844 52.4441 58.3674 53.3871 58.2524C53.3131 57.0444 53.7081 56.2104 54.5781 55.7574C54.1621 55.3434 53.9551 54.6074 53.9551 53.5464C53.9551 52.3004 54.3701 51.2594 55.2031 50.4274C56.0331 49.5974 57.0751 49.1794 58.3201 49.1794C59.6831 49.1794 60.7991 49.6544 61.6671 50.5974C62.7651 46.8554 65.1261 44.9844 68.7561 44.9844C70.6461 44.9844 72.3101 45.7404 73.7471 47.2544C74.2771 47.8194 74.5401 48.1224 74.5401 48.1594C74.0871 48.1594 74.3151 48.0734 75.2211 47.9054C76.1291 47.7344 76.7891 47.6484 77.2061 47.6484C78.6801 47.6484 79.9851 48.1984 81.1211 49.2944C82.1041 50.2784 82.7851 51.5234 83.1631 53.0364C83.4271 53.0754 83.8421 53.1874 84.4091 53.3774C85.2411 53.7944 85.6581 54.5124 85.6581 55.5324C85.6581 55.7204 85.5061 56.0814 85.2041 56.6114C87.6231 57.9724 88.8331 59.8624 88.8331 62.2814C88.8331 62.9634 88.5681 63.9084 88.0401 65.1174C89.0261 65.6864 89.5171 66.5184 89.5171 67.6154ZM66.1511 70.1104V69.3744C66.1511 68.5054 65.7261 67.7104 64.8761 66.9924C64.0251 66.2724 63.1661 65.9154 62.2951 65.9154C61.2351 65.9154 60.2531 66.1614 59.3461 66.6494C61.3491 66.5394 63.6181 67.6904 66.1511 70.1104ZM65.1301 63.0804C64.5631 62.4344 64.0721 61.7744 63.6561 61.0954C62.0671 61.5094 61.2741 61.9844 61.2741 62.5114C61.7271 62.4744 62.3901 62.5584 63.2581 62.7674C64.1261 62.9764 64.7521 63.0804 65.1301 63.0804ZM68.5921 61.3194V58.8244C67.6821 58.6754 67.1331 58.5984 66.9461 58.5984V59.4494L68.5921 61.3194ZM75.9641 59.7334C75.5091 59.5444 74.6591 59.1654 73.4101 58.5984V63.4754C75.1881 62.4534 76.0381 61.2074 75.9641 59.7334ZM79.0801 66.4254L77.8341 64.8964C77.0801 65.4254 76.3131 65.9624 75.5361 66.5114C74.7611 67.0584 74.0901 67.6734 73.5251 68.3554C75.2241 67.4444 77.0801 66.8044 79.0801 66.4254Z" fill="#0D0F0F"/>
</svg>
