<svg width="100" height="100" viewBox="0 0 100 100" fill="none" xmlns="http://www.w3.org/2000/svg">
<path d="M85.3495 14.6367C94.4015 23.6877 100 36.1877 100 49.9967C100 77.6127 77.6135 99.9997 50.0005 99.9997C36.1935 99.9997 23.6955 94.4037 14.6465 85.3537" fill="#F8F6D8"/>
<path d="M14.646 85.354C5.596 76.307 0 63.805 0 49.998C0 22.384 22.387 0 50 0C63.802 0 76.301 5.593 85.349 14.637" fill="#A3C095"/>
<path d="M88.0003 73.1086C85.5643 70.8446 83.9463 69.6176 83.1523 69.4266C82.5763 69.2876 82.0173 69.6246 81.4803 70.4306C80.9433 71.2396 80.1893 71.5246 79.2123 71.2906C78.8163 71.1956 78.0373 70.8556 76.8783 70.2716C75.9403 71.1576 75.4373 71.7436 75.3673 72.0306C75.2723 72.4296 75.4563 72.9686 75.9183 73.6526C76.3783 74.3356 76.8123 74.7246 77.2193 74.8236C77.4763 74.8856 77.8403 74.9146 78.3093 74.9126C78.7773 74.9116 79.0863 74.9286 79.2363 74.9636C79.6793 75.0676 79.7053 75.9346 79.3143 77.5596C78.9443 79.1136 78.0123 81.4136 76.5213 84.4526C76.4623 80.5436 75.9113 78.4626 74.8653 78.2146C74.7203 78.1796 74.3963 78.2186 73.8933 78.3256C73.3883 78.4326 73.0293 78.4626 72.8133 78.4096C71.7653 78.1596 71.0553 76.9756 70.6823 74.8646C68.9593 74.7186 67.9253 75.3706 67.5793 76.8136C67.4053 77.5396 67.6023 78.1966 68.1683 78.7886C68.7313 79.3806 68.9913 79.7686 68.9503 79.9486C68.7173 80.9256 66.9293 82.0826 63.5943 83.4226C61.8183 84.1446 60.5873 84.6506 59.9063 84.9446C60.5653 84.4166 61.2753 83.6886 62.0333 82.7626C62.8953 81.7056 63.4043 80.8566 63.5613 80.2036C63.6473 79.8446 63.3523 79.2366 62.6773 78.3896C62.0013 77.5406 61.7513 76.7556 61.9243 76.0346C62.0703 75.4206 62.4673 74.7136 63.1183 73.9146C62.7773 73.2616 62.2833 72.8546 61.6333 72.6996C60.1893 72.3506 59.3543 72.6496 59.1293 73.5896C59.2843 72.9396 59.1673 73.4276 58.7793 75.0526C58.5293 76.2526 57.4833 76.6316 55.6413 76.1936C54.2323 75.8556 51.9453 74.9646 48.7773 73.5196C52.7583 73.4806 54.8953 72.8456 55.1883 71.6166C55.1563 71.7626 55.1853 71.3106 55.2853 70.2636C55.4073 69.1116 56.4453 68.2886 58.3933 67.8006C58.4653 66.0626 57.7993 65.0236 56.3893 64.6876C56.1733 64.6346 55.6843 64.9186 54.9263 65.5386C54.1653 66.1596 53.5333 66.4106 53.0283 66.2886C52.1613 66.0836 51.2653 64.8756 50.3443 62.6686C49.9173 61.5736 49.2563 59.9456 48.3613 57.7826C49.0883 58.4156 49.8143 59.0496 50.5433 59.6786C51.5063 60.4466 52.3133 60.9056 52.9623 61.0616C53.4683 61.1826 54.0703 60.8586 54.7703 60.0896C55.4693 59.3206 56.2163 59.0316 57.0103 59.2236C57.1213 59.2496 57.7903 59.6376 59.0233 60.3916C59.9603 59.5086 60.4893 58.8156 60.6113 58.3096C60.7133 57.8746 60.5713 57.3156 60.1803 56.6306C59.7903 55.9436 59.3783 55.5516 58.9453 55.4456C58.7643 55.4006 58.4723 55.3886 58.0673 55.4076C57.6623 55.4266 57.3693 55.4126 57.1883 55.3696C56.5393 55.2126 56.4073 54.3246 56.7963 52.6986C56.8983 52.2636 57.9063 49.8886 59.8183 45.5746C59.6523 46.1056 59.6453 47.1766 59.7973 48.7776C59.9783 50.7306 60.4843 51.8026 61.3153 52.0056C61.4593 52.0376 61.7743 51.9986 62.2613 51.8876C62.7463 51.7746 63.1133 51.7476 63.3653 51.8076C64.1953 52.0066 64.7693 52.6416 65.0883 53.7096L65.5513 55.3646C66.3093 55.5476 67.0063 55.4276 67.6413 55.0076C68.2773 54.5856 68.6873 53.9966 68.8683 53.2386C69.0573 52.4436 68.8683 51.7596 68.3003 51.1816C67.7313 50.6076 67.4713 50.2096 67.5253 49.9936C67.7063 49.2356 69.2053 48.2386 72.0203 47.0036C74.2803 46.0176 75.7293 45.4666 76.3693 45.3516C74.3153 47.0776 73.1703 48.4226 72.9373 49.4006C72.8163 49.9066 72.9923 50.5216 73.4683 51.2476C74.0633 52.1146 74.3803 52.7066 74.4183 53.0196C74.5793 53.9356 74.2723 55.0646 73.4933 56.4086C74.3043 57.3286 74.9633 57.8466 75.4703 57.9696C76.5153 58.2196 77.1693 57.8036 77.4283 56.7196C77.4543 56.6106 77.4913 56.2576 77.5403 55.6576C77.5863 55.0586 77.6383 54.7266 77.6913 54.6626C77.9573 54.1916 79.0103 54.1766 80.8523 54.6176C82.0083 54.8926 84.3313 55.7926 87.8253 57.3166C86.9783 57.3416 85.7093 57.3806 84.0163 57.4336C82.4663 57.5236 81.6273 57.8376 81.4973 58.3786C81.4373 58.6326 81.4233 59.0866 81.4573 59.7426C81.4913 60.3996 81.4743 60.8746 81.4043 61.1616C81.2843 61.6686 80.8453 62.0576 80.0923 62.3366L77.9373 63.1976C78.1823 64.0946 78.3573 64.6346 78.4683 64.8136C78.7273 65.3316 79.1603 65.6676 79.7743 65.8136C80.2083 65.9176 80.6963 65.6316 81.2393 64.9596C81.7813 64.2876 82.4513 64.0466 83.2463 64.2376C84.2213 64.4686 85.1073 65.6346 85.9033 67.7356C86.3493 68.9146 87.0473 70.7036 88.0003 73.1086ZM76.7263 67.0896C77.2783 64.7766 76.9103 62.5686 75.6183 60.4646C74.3263 58.3606 72.5243 57.0316 70.2143 56.4806C67.8663 55.9196 65.6413 56.2756 63.5433 57.5506C61.4443 58.8206 60.0953 60.6276 59.4973 62.9656C58.9073 65.2676 59.2873 67.4706 60.6383 69.5696C61.9883 71.6666 63.8183 72.9946 66.1313 73.5476C68.5853 74.1346 70.8283 73.8196 72.8563 72.6076C74.8823 71.3936 76.1723 69.5526 76.7263 67.0896ZM75.9113 66.8936C75.3853 69.0966 74.2083 70.7446 72.3813 71.8326C70.5553 72.9226 68.5383 73.2056 66.3373 72.6786C64.2063 72.1666 62.5603 70.9916 61.3973 69.1456C60.2343 67.3036 59.9083 65.3176 60.4183 63.1866C60.9213 61.0906 62.1163 59.4776 64.0103 58.3446C65.9063 57.2136 67.8993 56.8996 69.9943 57.4016C72.0883 57.9016 73.7213 59.0926 74.8923 60.9776C76.0633 62.8646 76.4043 64.8356 75.9113 66.8936Z" fill="#0D0F0F"/>
<path d="M51.6392 34.3136C51.6392 35.0716 51.3462 35.7516 50.7602 36.3566C50.1742 36.9606 49.5022 37.2646 48.7442 37.2646C47.5372 37.2646 46.6462 36.6976 46.0812 35.5636L43.4152 35.4486C42.8472 35.4486 41.7302 35.6946 40.0692 36.1866C38.2922 36.6766 37.2712 37.0766 37.0052 37.3766C36.5912 37.8286 36.2502 38.8896 35.9852 40.5516C35.7572 41.9126 35.6462 42.9156 35.6462 43.5596C35.6462 44.5806 35.8062 45.3286 36.1262 45.7986C36.4472 46.2726 37.1102 46.6686 38.1102 46.9896C39.1112 47.3086 39.7262 47.4906 39.9542 47.5256C40.1052 47.5256 40.3502 47.5076 40.6912 47.4686H41.3722C41.8632 47.4686 42.3732 47.5456 42.9042 47.6976C43.6592 47.9266 43.9812 48.2266 43.8692 48.6056C43.3382 48.5296 42.4132 48.6426 41.0912 48.9456L42.6772 49.7396C42.6772 50.1936 42.0342 50.4206 40.7492 50.4206C40.4072 50.4206 39.9442 50.3446 39.3592 50.1936C38.7722 50.0416 38.3842 49.9666 38.1962 49.9666H37.4602C37.4212 50.3436 37.3092 50.9096 37.1192 51.6666C36.4742 51.6276 35.7202 51.2506 34.8492 50.5306C33.9792 49.8136 33.4312 49.4536 33.2062 49.4536C32.9782 49.4536 32.6552 49.8136 32.2412 50.5306C31.8242 51.2506 31.6172 51.7416 31.6172 52.0066C31.1262 51.7416 30.7122 51.2506 30.3682 50.5306C30.2172 50.0396 30.0472 49.5486 29.8592 49.0556C29.4802 49.0946 28.7822 49.8876 27.7602 51.4386H27.4762C27.4002 51.3246 27.1162 50.5306 26.6242 49.0556C25.4522 48.6786 24.3562 48.4896 23.3362 48.4896C22.8452 48.4896 22.0872 48.6046 21.0662 48.8296L19.4802 48.7186C19.7052 48.4896 20.3682 48.0566 21.4632 47.4136C22.7472 46.6576 23.7322 46.2786 24.4122 46.2786C24.5242 46.2786 24.6762 46.2986 24.8662 46.3356C25.0542 46.3736 25.2072 46.3926 25.3202 46.3926C25.5832 46.3926 26.0092 46.2506 26.5952 45.9656C27.1812 45.6856 27.5222 45.4296 27.6142 45.2016C27.7122 44.9736 27.7592 44.3886 27.7592 43.4406C27.7592 41.2876 27.1912 39.6806 26.0562 38.6216C25.0732 37.6776 23.4482 36.9966 21.1792 36.5816C20.5752 38.7356 18.8722 39.8136 16.0762 39.8136C15.1672 39.8136 14.2612 39.2646 13.3532 38.1676C12.4482 37.0716 11.9922 36.0696 11.9922 35.1626C11.9922 33.7636 12.5782 32.6086 13.7502 31.7006C12.8062 30.7206 12.3322 29.7186 12.3322 28.6966C12.3322 27.7496 12.6242 26.9196 13.2112 26.1986C13.7972 25.4816 14.5642 25.0656 15.5082 24.9536C15.4342 23.7426 15.8292 22.9116 16.6992 22.4576C16.2832 22.0416 16.0762 21.3046 16.0762 20.2466C16.0762 18.9996 16.4902 17.9586 17.3232 17.1276C18.1532 16.2946 19.1952 15.8776 20.4402 15.8776C21.8032 15.8776 22.9192 16.3556 23.7882 17.2976C24.8862 13.5546 27.2472 11.6836 30.8772 11.6836C32.7672 11.6836 34.4312 12.4396 35.8672 13.9526C36.3972 14.5196 36.6602 14.8226 36.6602 14.8596C36.2082 14.8596 36.4352 14.7736 37.3412 14.6036C38.2502 14.4336 38.9092 14.3476 39.3272 14.3476C40.8012 14.3476 42.1052 14.8966 43.2422 15.9936C44.2242 16.9756 44.9052 18.2226 45.2842 19.7356C45.5472 19.7746 45.9632 19.8876 46.5302 20.0756C47.3612 20.4946 47.7782 21.2106 47.7782 22.2316C47.7782 22.4196 47.6262 22.7806 47.3242 23.3076C49.7432 24.6686 50.9542 26.5596 50.9542 28.9816C50.9542 29.6606 50.6892 30.6066 50.1612 31.8156C51.1472 32.3866 51.6392 33.2206 51.6392 34.3136ZM28.2722 36.8106V36.0766C28.2722 35.2066 27.8472 34.4116 26.9962 33.6936C26.1452 32.9766 25.2862 32.6166 24.4162 32.6166C23.3562 32.6166 22.3742 32.8596 21.4672 33.3516C23.4712 33.2376 25.7392 34.3926 28.2722 36.8106ZM27.2512 29.7786C26.6852 29.1336 26.1932 28.4736 25.7772 27.7936C24.1882 28.2106 23.3952 28.6836 23.3952 29.2106C23.8472 29.1756 24.5102 29.2586 25.3782 29.4686C26.2482 29.6756 26.8742 29.7786 27.2512 29.7786ZM30.7142 28.0206V25.5246C29.8042 25.3756 29.2552 25.2966 29.0682 25.2966V26.1476L30.7142 28.0206ZM38.0852 26.4336C37.6312 26.2446 36.7802 25.8666 35.5312 25.2986V30.1756C37.3102 29.1536 38.1592 27.9056 38.0852 26.4336ZM41.2012 33.1256L39.9552 31.5936C39.2002 32.1236 38.4342 32.6606 37.6572 33.2106C36.8822 33.7596 36.2122 34.3726 35.6462 35.0526C37.3452 34.1446 39.2002 33.5036 41.2012 33.1256Z" fill="#0D0F0F"/>
</svg>
